<?xml version="1.0" standalone="no"?>
<!DOCTYPE svg PUBLIC "-//W3C//DTD SVG 20010904//EN"
 "http://www.w3.org/TR/2001/REC-SVG-20010904/DTD/svg10.dtd">
<svg version="1.0" xmlns="http://www.w3.org/2000/svg"
 width="10%" height="10%" viewBox="0 0 350 350"
 preserveAspectRatio="xMidYMid meet">
<metadata>
Created by potrace 1.16, written by Peter Selinger 2001-2019
</metadata>
<g transform="translate(0.000000,350.000000) scale(0.100000,-0.100000)"
fill="#000000" stroke="none">
<path d="M4755 7950 c-44 -5 -105 -14 -135 -19 -30 -6 -73 -13 -95 -17 -72
-11 -316 -75 -403 -106 -556 -196 -1026 -539 -1369 -1000 -364 -489 -544
-1001 -578 -1643 -12 -225 32 -590 99 -836 185 -673 617 -1276 1190 -1658 649
-433 1404 -585 2161 -435 544 108 1079 394 1465 783 473 477 770 1079 851
1731 19 153 17 552 -4 695 -81 541 -287 1025 -613 1435 -89 113 -348 370 -454
452 -410 317 -869 517 -1375 599 -103 17 -185 22 -395 24 -146 2 -301 0 -345
-5z m575 -295 c251 -30 453 -85 702 -192 463 -197 888 -534 1154 -913 75 -106
108 -160 102 -165 -10 -11 -143 43 -283 115 -82 41 -251 136 -375 210 -350
208 -519 288 -865 408 -297 103 -524 198 -825 345 -129 63 -268 127 -309 143
l-73 29 37 8 c181 37 485 42 735 12z m-975 -160 c146 -38 261 -84 471 -189
104 -52 268 -128 364 -169 161 -68 255 -104 615 -232 227 -82 422 -180 824
-419 330 -196 538 -286 701 -305 l55 -6 37 -75 c21 -41 42 -88 47 -105 32
-104 32 -95 3 -122 -26 -24 -31 -25 -122 -20 -190 11 -328 78 -680 330 -128
92 -469 298 -585 353 -180 86 -279 113 -626 174 -334 58 -482 129 -706 336
-254 235 -408 308 -653 308 -114 -1 -267 -15 -305 -29 -40 -16 0 13 70 49 135
70 320 145 356 146 20 0 81 -11 134 -25z m-110 -347 c92 -20 172 -75 328 -224
42 -41 80 -74 83 -74 12 0 69 -53 66 -62 -1 -5 2 -7 8 -3 6 4 24 -5 40 -19 41
-34 188 -116 285 -158 82 -36 218 -72 315 -83 85 -10 229 -35 290 -50 30 -7
72 -16 93 -20 21 -3 35 -10 32 -15 -3 -4 5 -6 17 -2 13 3 19 1 15 -5 -5 -7 1
-9 15 -5 14 3 19 1 14 -6 -5 -8 -2 -10 8 -6 9 3 63 -17 122 -46 118 -58 278
-160 251 -160 -15 0 -13 -5 10 -25 15 -14 21 -24 13 -23 -11 2 -15 -7 -14 -39
l0 -41 -36 18 c-20 10 -68 29 -106 41 -38 12 -80 30 -94 39 -81 56 -157 74
-194 47 -18 -13 -42 -102 -25 -91 5 3 9 -1 9 -9 0 -8 9 -24 20 -37 11 -13 19
-28 17 -34 -11 -32 -232 -57 -327 -37 -30 7 -61 12 -67 13 -7 1 -13 6 -13 11
0 5 -7 6 -15 3 -9 -3 -23 -1 -33 4 -9 5 -47 23 -85 40 -41 19 -65 35 -61 42 4
7 2 8 -4 4 -7 -4 -75 33 -154 85 -259 166 -374 216 -613 264 -71 15 -204 50
-295 80 -222 71 -274 79 -467 72 -285 -10 -471 -76 -743 -262 -132 -90 -170
-111 -170 -92 0 17 116 209 172 285 150 200 315 358 428 409 173 78 500 171
655 186 53 6 148 -1 210 -15z m-270 -726 c39 -11 115 -36 170 -55 55 -19 168
-49 250 -66 91 -18 184 -45 235 -66 46 -20 85 -37 86 -38 1 -1 -64 -2 -145 -3
-81 0 -191 -7 -244 -14 l-96 -12 -123 40 c-266 88 -456 75 -693 -47 -112 -57
-109 -56 -101 -42 5 7 1 9 -9 4 -11 -4 -13 -8 -5 -13 6 -4 -26 -36 -82 -82
-125 -101 -204 -152 -223 -144 -9 3 -14 2 -11 -2 11 -19 -109 -46 -201 -45
-77 0 -96 4 -122 22 -36 26 -38 50 -12 126 17 49 18 50 68 56 72 9 203 74 370
185 81 54 176 110 211 126 83 38 220 76 312 88 110 13 282 5 365 -18z m-662
-757 c32 -22 60 -73 134 -240 39 -88 137 -303 216 -478 80 -174 148 -330 152
-346 14 -63 -51 -141 -116 -141 -51 0 -88 39 -148 155 l-56 110 -253 3 -253 2
-55 -115 c-62 -132 -91 -160 -157 -151 -74 9 -119 78 -99 151 11 43 187 443
359 818 95 207 115 236 168 250 28 7 85 -2 108 -18z m936 19 c55 -11 106 -71
209 -249 55 -93 125 -215 157 -270 58 -99 58 -99 74 -76 9 13 80 135 159 270
79 135 155 259 170 275 74 78 192 72 249 -13 l23 -34 0 -514 c0 -578 1 -566
-68 -597 -38 -17 -45 -17 -79 -5 -21 9 -48 29 -60 48 -23 33 -23 40 -23 307 0
261 -1 275 -20 294 -40 40 -51 28 -165 -180 -54 -96 -107 -185 -119 -198 -28
-28 -86 -39 -126 -22 -32 13 -47 35 -174 262 -66 118 -96 158 -120 158 -2 0
-12 -7 -20 -16 -14 -13 -16 -54 -16 -291 0 -309 -3 -328 -67 -358 -69 -33
-149 12 -162 92 -3 21 -4 266 -1 545 l5 506 24 26 c36 38 89 52 150 40z m1462
-30 c15 -15 78 -102 140 -195 61 -93 116 -169 120 -169 5 0 52 66 105 148 137
209 133 205 162 227 51 38 133 20 165 -35 33 -55 25 -78 -106 -277 -68 -103
-141 -217 -163 -253 l-39 -65 -5 -250 c-5 -270 -8 -283 -60 -310 -36 -19 -61
-19 -104 -1 -60 25 -66 54 -66 309 l0 226 -33 63 c-18 35 -95 155 -170 267
-97 144 -137 213 -137 233 0 101 118 152 191 82z m965 -5 c18 -18 83 -106 144
-196 61 -89 113 -163 115 -163 2 0 39 53 83 118 148 220 165 242 197 262 38
24 64 25 110 6 37 -16 65 -60 65 -104 0 -20 -42 -89 -148 -243 -82 -118 -154
-224 -161 -236 -12 -24 6 -53 217 -353 45 -63 84 -129 88 -146 12 -66 -43
-134 -110 -134 -54 0 -77 24 -193 194 -122 181 -138 200 -159 188 -12 -7 -142
-188 -214 -299 -50 -76 -108 -100 -170 -68 -41 21 -60 53 -60 100 0 35 13 60
96 180 182 264 214 313 214 327 0 8 -19 41 -42 74 -80 114 -202 289 -235 338
-19 27 -33 61 -33 78 0 104 119 151 196 77z m750 -1514 c12 -3 24 -11 27 -19
8 -21 -57 -150 -84 -170 -22 -15 -80 -16 -579 -16 -665 1 -763 10 -996 85 -81
27 -284 118 -284 128 0 4 1896 -3 1916 -8z m-2546 -14 c203 -25 353 -71 570
-173 225 -107 378 -156 610 -194 87 -14 193 -18 625 -21 305 -3 526 -8 537
-14 10 -5 18 -17 18 -27 0 -25 -97 -151 -123 -160 -12 -4 -231 -5 -487 -1
-664 10 -738 23 -1132 202 -254 116 -377 151 -658 188 -78 10 -821 19 -1617
19 l-462 0 -37 63 c-49 83 -58 114 -36 127 24 15 2063 6 2192 -9z m-33 -392
c197 -19 368 -72 668 -207 145 -65 244 -98 391 -127 169 -35 314 -45 644 -45
214 0 298 -4 339 -14 29 -8 56 -17 59 -20 3 -3 -31 -43 -76 -88 l-80 -82 -209
2 c-314 4 -508 17 -758 52 -194 27 -336 66 -575 154 -303 113 -459 150 -745
177 -130 12 -956 8 -1339 -8 l-163 -6 -52 69 c-61 83 -70 108 -46 134 16 17
34 20 159 22 319 6 1688 -3 1783 -13z m-502 -379 c356 -14 516 -45 804 -154
263 -100 392 -138 562 -165 103 -17 429 -48 624 -61 99 -6 191 -12 205 -13 20
-2 10 -11 -55 -50 -44 -27 -102 -63 -130 -80 l-50 -32 -210 1 c-482 4 -681 35
-1060 169 -263 92 -475 143 -700 166 -143 14 -620 12 -805 -5 -114 -10 -149
-10 -165 -1 -40 25 -176 168 -173 183 2 9 17 19 33 24 17 5 190 12 385 17 496
11 480 11 735 1z m-4 -405 c217 -23 342 -54 645 -161 269 -94 481 -138 747
-154 92 -6 171 -8 175 -6 5 3 14 1 20 -3 8 -5 -29 -20 -90 -39 -259 -79 -427
-107 -593 -99 -133 7 -212 28 -470 125 -105 39 -229 82 -277 96 -121 35 -369
73 -522 80 -143 7 -152 11 -305 112 -58 39 -62 43 -40 48 85 19 535 20 710 1z"/>
<path d="M4121 6987 c-78 -45 -63 -173 22 -195 113 -30 194 85 119 169 -33 36
-101 49 -141 26z"/>
<path d="M5404 6382 c-83 -52 -62 -175 34 -199 36 -9 98 14 122 45 29 36 23
104 -13 139 -34 34 -101 41 -143 15z"/>
<path d="M3218 5243 c-20 -24 -128 -258 -128 -277 0 -14 21 -16 156 -16 182 0
172 -21 82 168 -69 147 -80 159 -110 125z"/>
</g>
</svg>
