<?xml version="1.0" standalone="no"?>
<!DOCTYPE svg PUBLIC "-//W3C//DTD SVG 20010904//EN"
 "http://www.w3.org/TR/2001/REC-SVG-20010904/DTD/svg10.dtd">
<svg version="1.0" xmlns="http://www.w3.org/2000/svg"
 width="10" height="10" viewBox="0 0 350 350"
 preserveAspectRatio="xMidYMid meet">
<metadata>
Created by potrace 1.16, written by Peter Selinger 2001-2019
</metadata>
<g transform="translate(0.000000,1024.000000) scale(0.100000,-0.100000)"
fill="#000000" stroke="none">
<path d="M4730 7784 c-663 -84 -1296 -443 -1718 -973 -309 -388 -499 -834
-579 -1358 -23 -157 -23 -530 1 -683 20 -134 72 -344 116 -480 137 -415 420
-859 716 -1126 166 -149 247 -210 421 -316 700 -426 1517 -509 2282 -231 378
137 735 368 1000 649 307 325 519 687 643 1099 127 422 151 829 72 1225 -114
574 -361 1040 -763 1440 -142 141 -235 219 -372 312 -357 242 -751 392 -1169
444 -143 18 -505 17 -650 -2z m675 -248 c670 -105 1276 -491 1655 -1056 80
-119 201 -338 207 -375 8 -50 -24 -80 -84 -79 -319 2 -577 7 -593 11 -11 3
-20 13 -20 22 0 10 -3 12 -8 4 -4 -6 -16 -13 -27 -15 -11 -1 -23 -7 -27 -13
-4 -6 -8 -2 -8 8 0 9 7 17 15 17 8 0 15 8 15 18 0 14 -2 15 -10 2 -8 -13 -10
-13 -10 2 0 9 -6 21 -12 25 -19 12 -20 46 -2 39 19 -7 30 22 14 37 -10 10 -11
7 -5 -13 6 -20 5 -23 -5 -13 -9 8 -19 9 -32 2 -12 -6 -18 -6 -18 1 0 5 6 10
14 10 16 0 16 31 1 42 -5 4 95 8 223 8 219 0 233 1 252 20 40 40 26 77 -83
219 -181 237 -420 443 -709 609 -472 273 -1023 358 -1551 242 -318 -71 -658
-235 -922 -445 -100 -80 -287 -266 -361 -361 -137 -175 -157 -221 -114 -264
18 -18 33 -20 170 -20 83 0 150 -4 150 -8 0 -13 30 -10 30 2 0 6 5 3 11 -7 6
-9 15 -15 21 -11 7 4 8 -1 3 -16 -6 -18 -4 -22 8 -17 11 4 14 2 10 -8 -3 -8
-10 -12 -17 -8 -6 4 -20 9 -31 10 -10 2 -22 8 -26 14 -5 8 -8 8 -13 0 -4 -6
-1 -11 6 -11 9 0 9 -3 -2 -10 -11 -8 -8 -9 11 -4 15 3 30 1 33 -5 4 -6 2 -11
-4 -11 -6 0 -8 -5 -4 -12 5 -8 -2 -9 -24 -5 -37 7 -52 -10 -44 -51 5 -26 6
-26 11 -5 4 16 10 20 20 14 12 -8 12 -12 -2 -25 -17 -17 -52 -22 -42 -6 3 6 2
10 -4 10 -5 0 -11 -4 -13 -9 -2 -7 -488 -18 -545 -12 -23 2 -43 33 -43 69 0
36 53 139 163 317 137 220 354 465 557 627 337 269 763 447 1203 503 140 18
470 13 612 -9z m415 -620 c41 -15 90 -37 108 -48 32 -20 92 -91 92 -110 0 -4
-430 -8 -955 -8 -1065 0 -987 -6 -918 71 43 47 70 62 178 100 l80 28 670 -2
670 -2 75 -29z m711 -462 c43 -22 64 -74 46 -116 -29 -68 95 -63 -1471 -66
-782 -2 -1441 0 -1465 3 -89 13 -120 92 -62 157 l29 33 199 6 c109 3 759 4
1446 3 1113 -3 1251 -5 1278 -20z m-2116 -1006 c115 -161 220 -310 234 -330
14 -21 28 -38 31 -38 3 0 51 67 107 148 156 225 333 475 348 492 8 9 32 16 55
17 l40 2 0 -575 0 -574 -115 0 -115 0 -2 278 -3 277 -41 -55 c-22 -30 -91
-134 -153 -230 -61 -96 -115 -176 -119 -177 -4 -2 -22 21 -40 50 -128 200
-265 407 -269 403 -2 -2 -4 -126 -5 -275 l0 -271 -113 0 -112 0 -7 348 c-7
358 -6 781 1 795 2 4 19 7 37 7 32 0 41 -10 241 -292z m-927 177 c129 -296
228 -518 342 -762 l128 -273 -137 0 -136 0 -55 125 -55 125 -215 0 -215 0 -54
-125 -55 -125 -143 0 c-79 0 -142 3 -140 8 29 51 306 639 458 970 l74 163 80
-3 79 -3 44 -100z m2250 93 c5 -7 54 -98 107 -203 54 -104 99 -191 100 -193 2
-2 50 88 108 200 l105 203 131 3 c72 1 131 -1 131 -6 0 -5 -24 -49 -54 -98
-94 -156 -282 -478 -300 -511 -14 -27 -16 -69 -16 -278 l0 -245 -110 0 -110 0
0 262 0 262 -117 200 c-64 111 -140 239 -168 287 -29 47 -57 95 -64 107 l-12
22 129 0 c92 0 132 -4 140 -12z m1099 -168 c52 -96 97 -178 102 -183 4 -4 52
76 107 178 l99 185 124 0 c111 0 123 -2 117 -17 -4 -9 -77 -140 -163 -290
l-156 -273 164 -272 c90 -150 166 -276 167 -280 2 -4 -53 -8 -122 -8 l-125 0
-24 43 c-14 23 -55 96 -92 162 -38 66 -74 128 -81 138 -12 19 -24 0 -186 -290
l-29 -53 -131 0 -130 0 20 33 c11 17 88 143 171 280 l151 247 -20 40 c-11 21
-69 121 -128 222 -142 239 -182 308 -182 314 0 2 57 3 127 2 l126 -3 94 -175z
m408 -1264 c53 -53 44 -98 -55 -281 -97 -178 -221 -361 -321 -475 -106 -121
-128 -142 -141 -134 -7 4 -8 2 -4 -5 10 -15 -13 -43 -30 -37 -7 3 -16 0 -20
-6 -5 -7 -2 -8 7 -3 8 5 6 -1 -5 -13 -10 -12 -23 -19 -29 -15 -13 8 -69 12
-61 4 3 -3 15 -6 27 -6 11 0 22 -6 25 -14 3 -8 0 -11 -7 -7 -6 4 -11 2 -11 -5
0 -12 -7 -19 -61 -59 -25 -18 -28 -19 -40 -3 -12 15 -12 16 4 10 20 -8 47 1
47 15 0 6 -6 5 -15 -2 -12 -10 -18 -10 -30 0 -11 9 -15 10 -15 1 0 -7 -8 -10
-17 -7 -11 3 -31 -5 -48 -19 -16 -14 -25 -25 -18 -25 6 0 15 5 18 10 3 6 11
10 16 10 6 0 7 -5 3 -12 -5 -7 -3 -8 6 -3 7 4 16 2 20 -5 5 -8 10 -9 14 -2 3
6 -3 13 -14 17 -11 3 -20 11 -20 16 0 15 16 10 34 -10 14 -15 15 -21 4 -27
-17 -10 -47 -11 -76 -2 -17 6 -34 -1 -72 -28 -28 -20 -50 -38 -50 -41 0 -2 5
-1 12 3 7 4 8 3 4 -4 -4 -6 -13 -9 -21 -6 -17 7 -68 -30 -57 -41 4 -5 2 -5 -5
-1 -15 8 -244 -105 -236 -118 3 -5 1 -6 -6 -2 -6 4 -53 -9 -104 -28 -121 -46
-285 -91 -400 -110 -50 -8 -126 -20 -167 -27 -109 -18 -430 -15 -578 5 -250
34 -498 111 -717 222 -114 58 -262 148 -277 169 -5 6 -8 6 -8 -2 0 -6 -9 -9
-20 -6 -11 3 -20 9 -20 14 0 5 8 6 18 2 9 -3 -1 8 -23 26 -22 17 -47 38 -55
45 -37 30 -42 26 -11 -7 19 -20 43 -40 54 -43 17 -5 17 -7 1 -18 -15 -11 -13
-14 15 -26 17 -7 34 -17 37 -22 4 -5 -8 -2 -26 7 -17 9 -34 14 -37 12 -2 -3 6
-11 18 -18 13 -6 34 -23 48 -37 20 -19 15 -17 -23 8 -27 18 -57 41 -68 52 -10
10 -23 18 -29 18 -5 0 -8 3 -6 8 6 9 -13 26 -33 30 -8 2 -17 8 -18 13 -2 5 -7
7 -10 5 -4 -2 -22 11 -40 28 -30 29 -31 33 -17 51 11 14 15 16 14 5 -3 -29 1
-39 14 -36 6 1 9 1 5 -1 -15 -9 -8 -22 9 -16 11 4 14 3 9 -5 -10 -16 5 -14 28
3 15 11 16 15 5 15 -8 0 -29 13 -46 30 -30 29 -30 29 -50 10 -20 -18 -21 -18
-38 0 -9 10 -14 24 -9 31 4 8 3 10 -4 5 -26 -16 -220 204 -337 381 -106 158
-211 353 -236 438 -11 38 5 89 34 110 19 13 274 15 2170 15 l2148 0 24 -24z"/>
<path d="M3330 5258 c-13 -29 -38 -88 -56 -130 l-33 -78 119 0 119 0 -14 33
c-29 70 -104 227 -108 227 -3 0 -15 -24 -27 -52z"/>
<path d="M3229 4109 c-14 -5 -34 -25 -44 -43 -17 -31 -17 -36 -1 -82 9 -26 55
-105 101 -175 294 -436 771 -752 1320 -873 496 -110 1114 -17 1546 234 322
187 546 396 737 688 78 119 92 160 69 208 -9 19 -28 39 -43 44 -34 13 -3649
12 -3685 -1z m3295 -253 c44 -18 61 -64 42 -111 -30 -70 95 -65 -1516 -63
l-1453 3 -20 27 c-40 53 -19 140 37 151 11 2 664 5 1449 6 1200 1 1433 -1
1461 -13z m-526 -455 c-2 -8 -15 -23 -30 -34 -22 -17 -47 -22 -120 -25 l-93
-4 -45 -48 c-30 -32 -59 -52 -85 -59 -27 -7 -217 -11 -568 -11 -591 0 -562 -3
-637 74 l-44 46 -86 0 c-89 0 -137 17 -158 57 -10 17 27 18 929 18 798 0 939
-2 937 -14z"/>
</g>
</svg>
